# xmcd
#
# Track frame offsets:
#	150
#	13037
#	25100
#	37387
#	49862
#	61727
#	73307
#	86334
#	97492
#	111070
#	123487
#	133477
#
# Disc length: 1940 seconds
#
# Revision: 1
# Processed by: cddbd v1.5.1PL0 Copyright (c) Steve Scherf et al.
# Submitted via: EasyCDDAExtractor 7.0.6.1
#
DISCID=b307920c
DTITLE=Big Mama Thornton - The Big Chance
DYEAR=1993
DGENRE=Blues
TTITLE0=Hound Dog
TTITLE1=My Man Called Me
TTITLE2=You Don't Move Me No More
TTITLE3=Let Your Tears Fall Baby
TTITLE4=Rock-A-Bye Baby
TTITLE5=How Come
TTITLE6=Nightmare
TTITLE7=Stop A-Hoppin'  On Me
TTITLE8=Walking Blues
TTITLE9=The Big Chance
TTITLE10=Hard Times
TTITLE11=I've Searched The Whole World Over
EXTD=
EXTT0=
EXTT1=
EXTT2=
EXTT3=
EXTT4=
EXTT5=
EXTT6=
EXTT7=
EXTT8=
EXTT9=
EXTT10=
EXTT11=
PLAYORDER=
